<?xml version="1.0" standalone="no"?>
<!DOCTYPE svg PUBLIC "-//W3C//DTD SVG 20010904//EN"
 "http://www.w3.org/TR/2001/REC-SVG-20010904/DTD/svg10.dtd">
<svg version="1.0" xmlns="http://www.w3.org/2000/svg"
 width="746.000000pt" height="206.000000pt" viewBox="0 0 746.000000 206.000000"
 preserveAspectRatio="xMidYMid meet">

<g transform="translate(0.000000,206.000000) scale(0.100000,-0.100000)"
fill="#000000" stroke="none">
<path d="M4570 1819 c-138 -24 -280 -126 -343 -246 -146 -281 -9 -606 295
-700 81 -25 236 -23 320 6 176 59 287 185 325 367 38 185 -40 385 -190 488
-110 76 -270 109 -407 85z m186 -80 c127 -23 250 -122 295 -237 19 -46 23 -77
23 -162 1 -99 -1 -109 -33 -178 -165 -351 -710 -278 -769 103 -36 226 94 425
308 471 71 16 103 16 176 3z"/>
<path d="M345 1808 c-3 -7 -4 -222 -3 -478 l3 -465 48 -3 47 -3 0 155 0 154
203 4 202 3 65 32 c36 17 80 45 98 63 128 124 114 366 -29 469 -92 67 -129 74
-391 79 -193 3 -239 1 -243 -10z m507 -97 c104 -40 158 -137 145 -254 -10 -77
-51 -136 -122 -172 -58 -30 -60 -30 -247 -33 l-188 -4 0 240 c0 183 3 242 13
246 6 3 86 4 177 2 141 -3 173 -6 222 -25z"/>
<path d="M1334 1806 c-3 -8 -4 -223 -2 -478 l3 -463 338 -3 337 -2 0 40 0 40
-287 2 -288 3 0 180 0 180 248 3 247 2 0 40 0 40 -250 0 -250 0 0 169 c0 166
0 169 23 175 12 3 138 6 280 6 l257 0 0 40 0 40 -325 0 c-275 0 -326 -2 -331
-14z"/>
<path d="M2260 1339 l0 -480 48 3 47 3 3 153 3 152 168 0 168 0 108 -151 c60
-83 114 -153 121 -156 6 -2 30 -3 53 -1 l42 3 -110 152 c-60 83 -112 156 -115
161 -3 6 13 19 36 31 69 33 115 77 145 139 25 50 28 68 28 147 -1 77 -5 97
-27 141 -32 60 -93 118 -153 144 -74 32 -150 40 -362 40 l-203 0 0 -481z m490
381 c67 -25 109 -61 136 -116 23 -47 26 -64 22 -128 -3 -63 -8 -81 -33 -118
-19 -26 -52 -55 -85 -73 -55 -30 -56 -30 -242 -33 l-188 -4 0 239 c0 132 3
243 8 247 12 13 343 0 382 -14z"/>
<path d="M3260 1350 c0 -258 0 -473 0 -477 0 -5 20 -9 45 -11 l44 -3 3 153 3
153 170 3 171 2 109 -155 110 -155 48 0 c39 0 48 3 44 14 -3 8 -53 80 -111
161 -58 80 -106 148 -106 150 0 3 22 16 50 30 94 47 143 116 160 221 24 146
-37 271 -161 335 -74 37 -161 49 -376 49 l-203 0 0 -470z m505 361 c104 -46
152 -129 142 -243 -8 -87 -46 -144 -122 -183 -58 -30 -60 -30 -247 -33 l-188
-4 0 240 c0 183 3 242 13 246 6 3 89 4 182 3 150 -3 176 -6 220 -26z"/>
<path d="M5410 1339 l0 -480 48 3 47 3 5 383 5 384 75 -95 c41 -52 181 -226
310 -386 233 -289 234 -291 272 -291 l38 0 0 480 0 480 -45 0 -45 0 0 -385 c0
-213 -4 -385 -9 -385 -5 0 -147 173 -315 385 l-307 385 -40 0 -39 0 0 -481z"/>
<path d="M6530 1340 l0 -480 341 0 340 0 -3 43 -3 42 -288 -1 -287 -2 2 182 3
181 248 3 247 2 0 40 0 40 -250 0 -250 0 2 173 3 172 278 3 277 2 0 40 0 40
-330 0 -330 0 0 -480z"/>
<path d="M158 713 c-2 -5 -2 -133 0 -286 l3 -277 3566 2 3565 3 2 283 1 282
-3567 0 c-1962 0 -3568 -3 -3570 -7z m7082 -278 l0 -225 -3512 2 -3513 3 -3
223 -2 222 3515 0 3515 0 0 -225z"/>
<path d="M580 583 c-41 -88 -120 -268 -120 -275 0 -4 7 -8 16 -8 9 0 23 17 32
40 l17 40 88 0 87 0 16 -40 c11 -27 22 -40 35 -40 28 0 34 -18 -65 193 -59
126 -80 144 -106 90z m69 -89 c17 -36 31 -68 31 -70 0 -2 -29 -4 -65 -4 -36 0
-65 2 -65 5 0 14 55 135 61 135 4 0 21 -30 38 -66z"/>
<path d="M1160 500 c0 -157 26 -196 131 -194 99 1 131 52 127 202 -3 83 -6 97
-20 100 -16 3 -18 -6 -18 -91 0 -145 -18 -177 -98 -177 -27 0 -45 7 -60 23
-19 20 -22 36 -24 132 -3 95 -5 110 -20 113 -16 3 -18 -7 -18 -108z"/>
<path d="M1800 590 c0 -17 7 -20 53 -20 l52 0 -3 -135 c-3 -131 -2 -135 17
-135 20 0 21 6 23 108 1 59 2 119 1 135 -1 26 1 27 53 27 47 0 54 2 54 20 0
19 -7 20 -125 20 -118 0 -125 -1 -125 -20z"/>
<path d="M2501 588 c-63 -33 -86 -68 -86 -131 0 -66 31 -112 93 -139 106 -47
232 27 232 138 0 114 -133 188 -239 132z m147 -34 c68 -47 67 -152 -2 -198
-34 -22 -104 -20 -142 3 -62 38 -66 144 -7 190 32 26 117 29 151 5z"/>
<path d="M3140 455 c0 -147 1 -155 20 -155 18 0 20 8 22 113 l3 112 55 -89
c30 -49 60 -91 65 -93 6 -2 33 36 60 84 28 48 54 86 59 85 5 -1 8 -49 7 -107
-2 -100 -1 -105 18 -105 20 0 21 5 21 156 0 192 -7 195 -95 47 -33 -56 -64
-101 -70 -100 -5 2 -36 49 -69 105 -41 69 -66 102 -78 102 -17 0 -18 -13 -18
-155z"/>
<path d="M3988 600 c-70 -21 -108 -73 -108 -149 0 -50 3 -57 43 -96 30 -31 53
-44 83 -49 122 -21 223 77 193 188 -23 85 -119 134 -211 106z m137 -61 c31
-28 35 -36 35 -81 0 -44 -4 -54 -34 -84 -50 -50 -122 -50 -172 0 -29 29 -34
41 -34 81 0 40 5 52 34 81 30 30 40 34 85 34 42 0 56 -5 86 -31z"/>
<path d="M4610 455 l0 -158 105 5 c93 4 108 7 130 28 34 32 34 83 0 114 -21
19 -22 25 -10 37 27 28 28 64 2 95 -23 27 -29 28 -126 32 l-101 4 0 -157z
m194 93 c13 -19 14 -25 2 -43 -11 -16 -26 -21 -85 -23 l-71 -3 0 46 0 45 69 0
c61 0 72 -3 85 -22z m14 -120 c19 -19 15 -66 -7 -78 -11 -5 -51 -10 -90 -10
l-71 0 0 50 0 50 78 0 c47 0 83 -5 90 -12z"/>
<path d="M5280 455 c0 -148 1 -155 20 -155 19 0 20 7 20 155 0 148 -1 155 -20
155 -19 0 -20 -7 -20 -155z"/>
<path d="M5750 455 l0 -156 102 3 c89 3 103 5 106 21 3 15 -6 17 -82 17 l-86
0 0 135 c0 128 -1 135 -20 135 -19 0 -20 -7 -20 -155z"/>
<path d="M6345 598 c-3 -8 -4 -77 -3 -153 l3 -140 100 0 c86 0 100 2 103 17 3
15 -8 18 -79 20 l-82 3 -1 130 c-1 115 -3 130 -19 133 -9 2 -19 -3 -22 -10z"/>
<path d="M6940 455 c0 -148 1 -155 20 -155 19 0 20 7 20 155 0 148 -1 155 -20
155 -19 0 -20 -7 -20 -155z"/>
</g>
</svg>
